<svg width="2927" height="531" viewBox="0 0 2927 531" fill="none" xmlns="http://www.w3.org/2000/svg">
<path d="M784.354 423.48C759.565 423.48 738.509 419.149 721.186 410.488C703.863 401.528 690.573 387.939 681.314 369.72C672.055 351.203 666.978 327.907 666.082 299.832C665.783 286.392 665.634 273.848 665.634 262.2C665.634 250.552 665.783 238.008 666.082 224.568C666.978 196.792 672.354 173.795 682.21 155.576C692.066 137.059 705.655 123.32 722.978 114.36C740.599 105.4 761.058 100.92 784.354 100.92C807.65 100.92 827.959 105.4 845.282 114.36C862.903 123.32 876.642 137.059 886.498 155.576C896.653 173.795 902.029 196.792 902.626 224.568C903.223 238.008 903.522 250.552 903.522 262.2C903.522 273.848 903.223 286.392 902.626 299.832C902.029 327.907 896.951 351.203 887.394 369.72C878.135 387.939 864.845 401.528 847.522 410.488C830.199 419.149 809.143 423.48 784.354 423.48ZM784.354 396.6C810.039 396.6 831.095 388.835 847.522 373.304C864.247 357.773 873.207 332.536 874.402 297.592C874.999 284.152 875.298 272.355 875.298 262.2C875.298 252.045 874.999 240.248 874.402 226.808C873.805 203.512 869.474 184.547 861.41 169.912C853.645 155.277 843.042 144.675 829.602 138.104C816.461 131.235 801.378 127.8 784.354 127.8C767.629 127.8 752.546 131.235 739.106 138.104C725.965 144.675 715.362 155.277 707.298 169.912C699.533 184.547 695.202 203.512 694.306 226.808C694.007 240.248 693.858 252.045 693.858 262.2C693.858 272.355 694.007 284.152 694.306 297.592C695.501 332.536 704.461 357.773 721.186 373.304C737.911 388.835 758.967 396.6 784.354 396.6ZM1022.74 419C1019.75 419 1017.36 418.104 1015.57 416.312C1013.78 414.52 1012.88 412.131 1012.88 409.144V115.704C1012.88 112.419 1013.78 109.88 1015.57 108.088C1017.36 106.296 1019.75 105.4 1022.74 105.4H1032.15C1035.13 105.4 1037.37 106.147 1038.87 107.64C1040.36 109.133 1041.26 110.179 1041.55 110.776L1206.87 363.448V115.704C1206.87 112.419 1207.76 109.88 1209.55 108.088C1211.35 106.296 1213.74 105.4 1216.72 105.4H1224.79C1228.07 105.4 1230.61 106.296 1232.4 108.088C1234.19 109.88 1235.09 112.419 1235.09 115.704V408.696C1235.09 411.683 1234.19 414.221 1232.4 416.312C1230.61 418.104 1228.22 419 1225.23 419H1215.38C1212.39 419 1210.15 418.253 1208.66 416.76C1207.46 415.267 1206.57 414.221 1205.97 413.624L1041.11 161.848V409.144C1041.11 412.131 1040.21 414.52 1038.42 416.312C1036.63 418.104 1034.09 419 1030.8 419H1022.74ZM1367.07 419C1364.08 419 1361.69 418.104 1359.9 416.312C1358.11 414.52 1357.21 412.131 1357.21 409.144V115.704C1357.21 112.419 1358.11 109.88 1359.9 108.088C1361.69 106.296 1364.08 105.4 1367.07 105.4H1541.79C1545.07 105.4 1547.61 106.296 1549.4 108.088C1551.2 109.88 1552.09 112.419 1552.09 115.704V122.424C1552.09 125.411 1551.2 127.8 1549.4 129.592C1547.61 131.384 1545.07 132.28 1541.79 132.28H1385.44V246.52H1531.93C1535.22 246.52 1537.76 247.416 1539.55 249.208C1541.34 251 1542.24 253.539 1542.24 256.824V263.544C1542.24 266.531 1541.34 268.92 1539.55 270.712C1537.76 272.504 1535.22 273.4 1531.93 273.4H1385.44V392.12H1545.37C1548.66 392.12 1551.2 393.016 1552.99 394.808C1554.78 396.6 1555.68 399.139 1555.68 402.424V409.144C1555.68 412.131 1554.78 414.52 1552.99 416.312C1551.2 418.104 1548.66 419 1545.37 419H1367.07ZM1664.45 419C1661.16 419 1658.48 417.955 1656.39 415.864C1654.3 413.773 1653.25 411.235 1653.25 408.248V116.6C1653.25 113.315 1654.3 110.627 1656.39 108.536C1658.48 106.445 1661.16 105.4 1664.45 105.4H1699.84C1704.02 105.4 1707.16 106.595 1709.25 108.984C1711.34 111.075 1712.68 112.717 1713.28 113.912L1799.75 275.192L1887.11 113.912C1887.7 112.717 1889.05 111.075 1891.14 108.984C1893.23 106.595 1896.36 105.4 1900.55 105.4H1935.49C1938.78 105.4 1941.46 106.445 1943.55 108.536C1945.64 110.627 1946.69 113.315 1946.69 116.6V408.248C1946.69 411.235 1945.64 413.773 1943.55 415.864C1941.46 417.955 1938.78 419 1935.49 419H1897.86C1894.57 419 1891.88 417.955 1889.79 415.864C1888 413.773 1887.11 411.235 1887.11 408.248V214.264L1824.39 333.88C1822.89 336.568 1820.95 338.957 1818.56 341.048C1816.17 342.84 1813.04 343.736 1809.15 343.736H1790.79C1786.6 343.736 1783.32 342.84 1780.93 341.048C1778.84 338.957 1777.05 336.568 1775.55 333.88L1712.83 214.264V408.248C1712.83 411.235 1711.79 413.773 1709.7 415.864C1707.61 417.955 1705.07 419 1702.08 419H1664.45ZM2035.19 419C2032.8 419 2030.56 418.104 2028.47 416.312C2026.68 414.52 2025.78 412.28 2025.78 409.592C2025.78 408.397 2026.08 407.053 2026.68 405.56L2134.65 116.6C2135.54 113.613 2137.19 111.075 2139.57 108.984C2142.26 106.595 2145.85 105.4 2150.33 105.4H2199.16C2203.64 105.4 2207.07 106.595 2209.46 108.984C2211.85 111.075 2213.64 113.613 2214.84 116.6L2322.81 405.56C2323.11 407.053 2323.26 408.397 2323.26 409.592C2323.26 412.28 2322.36 414.52 2320.57 416.312C2318.77 418.104 2316.68 419 2314.3 419H2275.32C2271.14 419 2268 418.104 2265.91 416.312C2264.12 414.221 2262.92 412.28 2262.33 410.488L2241.27 355.832H2108.21L2087.16 410.488C2086.56 412.28 2085.22 414.221 2083.13 416.312C2081.33 418.104 2078.35 419 2074.17 419H2035.19ZM2123.89 304.312H2225.59L2174.52 165.88L2123.89 304.312ZM2413.91 419C2410.93 419 2408.39 417.955 2406.3 415.864C2404.21 413.773 2403.16 411.235 2403.16 408.248V116.152C2403.16 113.165 2404.21 110.627 2406.3 108.536C2408.39 106.445 2410.93 105.4 2413.91 105.4H2455.58C2458.56 105.4 2461.1 106.445 2463.19 108.536C2465.28 110.627 2466.33 113.165 2466.33 116.152V365.688H2608.34C2611.63 365.688 2614.32 366.733 2616.41 368.824C2618.5 370.915 2619.54 373.603 2619.54 376.888V408.248C2619.54 411.235 2618.5 413.773 2616.41 415.864C2614.32 417.955 2611.63 419 2608.34 419H2413.91ZM2711.87 419C2708.88 419 2706.34 417.955 2704.25 415.864C2702.16 413.773 2701.11 411.235 2701.11 408.248V116.152C2701.11 113.165 2702.16 110.627 2704.25 108.536C2706.34 106.445 2708.88 105.4 2711.87 105.4H2753.53C2756.52 105.4 2759.06 106.445 2761.15 108.536C2763.24 110.627 2764.28 113.165 2764.28 116.152V365.688H2906.3C2909.58 365.688 2912.27 366.733 2914.36 368.824C2916.45 370.915 2917.5 373.603 2917.5 376.888V408.248C2917.5 411.235 2916.45 413.773 2914.36 415.864C2912.27 417.955 2909.58 419 2906.3 419H2711.87Z" fill="#373F50"/>
<path d="M432.654 522H30.412C13.616 522 0 508.384 0 491.588V80.028C0 63.232 13.616 49.616 30.412 49.616H432.654C449.45 49.616 463.066 63.232 463.066 80.028V491.589C463.066 508.384 449.45 522 432.654 522Z" fill="url(#paint0_linear_26_65)"/>
<path d="M432.654 49.616H30.412C13.616 49.616 0 63.232 0 80.028V87.134C0 103.93 13.616 117.546 30.412 117.546H432.654C449.45 117.546 463.066 103.93 463.066 87.134V80.028C463.066 63.232 449.45 49.616 432.654 49.616Z" fill="#003A4F"/>
<path d="M164.397 21.6901V117.551H30.1279V21.6901C30.1279 15.2411 35.3669 10.0031 41.8169 10.0031H152.71C159.157 10.0011 164.397 15.2411 164.397 21.6901Z" fill="#04BF68"/>
<path d="M152.705 10H41.82C35.3619 10 30.127 15.235 30.127 21.693V53.072C30.127 59.53 35.3619 64.765 41.82 64.765H152.705C159.163 64.765 164.398 59.53 164.398 53.072V21.693C164.398 15.235 159.163 10 152.705 10Z" fill="#04D273"/>
<path d="M432.938 21.6901V117.551H298.669V21.6901C298.669 15.2411 303.908 10.0031 310.358 10.0031H421.251C427.698 10.0011 432.938 15.2411 432.938 21.6901Z" fill="#F56B4F"/>
<path d="M421.246 10H310.361C303.903 10 298.668 15.235 298.668 21.693V53.072C298.668 59.53 303.903 64.765 310.361 64.765H421.246C427.704 64.765 432.939 59.53 432.939 53.072V21.693C432.939 15.235 427.704 10 421.246 10Z" fill="#F45434"/>
<path d="M298.667 47.285V117.551H164.398V47.285C164.398 40.836 169.637 35.598 176.087 35.598H286.98C293.428 35.598 298.667 40.836 298.667 47.285Z" fill="#F2D857"/>
<path d="M286.976 35.597H176.09C169.632 35.597 164.397 40.832 164.397 47.29V78.67C164.397 85.128 169.632 90.363 176.09 90.363H286.975C293.433 90.363 298.668 85.128 298.668 78.67V47.289C298.668 40.831 293.434 35.597 286.976 35.597Z" fill="#F5CC00"/>
<path d="M90.0529 212.958C103.198 212.958 113.854 202.302 113.854 189.157C113.854 176.012 103.198 165.356 90.0529 165.356C76.908 165.356 66.252 176.012 66.252 189.157C66.252 202.302 76.908 212.958 90.0529 212.958Z" fill="#003A4F"/>
<path d="M373.008 212.958C386.153 212.958 396.809 202.302 396.809 189.157C396.809 176.012 386.153 165.356 373.008 165.356C359.863 165.356 349.207 176.012 349.207 189.157C349.207 202.302 359.863 212.958 373.008 212.958Z" fill="#003A4F"/>
<path d="M234.373 399.691C145.534 401.262 73.2002 328.369 73.2002 239.517V191.472C73.2002 182.343 80.5992 174.944 89.7282 174.944C98.8572 174.944 106.256 182.343 106.256 191.472V239.658C106.256 310.001 163.452 367.886 233.783 366.64C301.826 365.435 356.808 309.708 356.808 241.383V191.472C356.808 182.343 364.207 174.944 373.336 174.944C382.465 174.944 389.864 182.343 389.864 191.472V241.383C389.866 327.739 320.372 398.171 234.373 399.691Z" fill="white"/>
<defs>
<linearGradient id="paint0_linear_26_65" x1="-0.46387" y1="107" x2="463.536" y2="498" gradientUnits="userSpaceOnUse">
<stop stop-color="#58B1FF"/>
<stop offset="1" stop-color="#0065BE"/>
</linearGradient>
</defs>
</svg>
