<svg xmlns="http://www.w3.org/2000/svg" width="1074" height="248" viewBox="0 0 1074 248" fill="none"><path d="M349.347 166.718C349.347 153.57 338.676 142.899 325.528 142.899H301.709V112.725C301.709 94.3372 287.442 79.3884 269.949 79.3884C265.609 79.3884 261.303 80.3174 257.111 82.2086L229.228 94.6468L215.709 67.2551C204.881 45.3655 183.044 31.7458 158.758 31.7458C123.744 31.7458 95.2757 60.2523 95.2757 95.2661V127.022H63.5155C45.961 127.022 31.7554 141.227 31.7554 158.782C31.7554 162.102 32.2651 165.294 33.2131 168.3C37.2575 155.418 49.2861 146.077 63.5155 146.077H114.331V95.2661C114.331 70.7469 134.258 50.8057 158.758 50.8057C175.75 50.8057 191.023 60.3476 198.616 75.6965L220.258 119.514L264.952 99.5774C273.698 95.6282 282.654 102.969 282.654 112.725V161.954H325.528C335.289 161.954 343.669 167.838 347.347 176.25C348.628 173.33 349.347 170.105 349.347 166.718V166.718Z" fill="#7B67FD" fill-opacity="0.2"></path><path fill-rule="evenodd" clip-rule="evenodd" d="M269.949 47.6378C304.758 47.6378 332.946 76.373 333.379 111.939C360.328 115.798 381.103 138.736 381.103 166.723C381.103 197.44 356.207 222.302 325.524 222.302H318.271C320.256 217.705 321.357 212.647 321.357 207.345C321.357 201.463 320.001 195.881 317.587 190.896V190.547H325.524C338.676 190.547 349.338 179.895 349.338 166.732C349.338 153.57 338.676 142.914 325.524 142.914H301.705V112.725C301.705 94.3372 287.456 79.3885 269.949 79.3885C265.605 79.3885 261.303 80.3174 257.111 82.2134L229.229 94.6516L215.709 67.2694C204.881 45.3655 183.048 31.7506 158.763 31.7506C123.749 31.7506 95.2757 60.2523 95.2757 95.2614V127.022H63.5155C45.961 127.022 31.7554 141.227 31.7554 158.782C31.7554 176.295 45.9488 190.525 63.4929 190.537C60.9688 195.612 59.5473 201.321 59.5473 207.345C59.5473 212.645 60.6474 217.701 62.6304 222.296C27.9626 221.822 0 193.562 0 158.782C0 123.711 28.4398 95.2662 63.5203 95.2757C63.5203 42.6406 106.161 0 158.763 0C196.258 0 228.6 21.7086 244.172 53.1876C252.047 49.6815 260.765 47.6378 269.949 47.6378Z" fill="#7B67FD"></path><path d="M269.393 171.198H240.157C222.274 171.198 207.209 183.731 203.219 200.435H177.688C173.696 183.731 158.637 171.198 140.747 171.198H111.511C90.611 171.198 73.5037 188.309 73.5037 209.206C73.5037 230.106 90.611 247.213 111.511 247.213H140.747C158.637 247.213 173.699 234.681 177.688 217.977H203.216C207.209 234.681 222.274 247.213 240.153 247.213H269.393C290.293 247.213 307.4 230.106 307.4 209.206C307.4 188.309 290.293 171.198 269.393 171.198ZM140.747 229.671H111.511C100.228 229.671 91.0461 220.493 91.0461 209.206C91.0461 197.923 100.228 188.741 111.511 188.741H140.747C148.891 188.741 155.918 193.53 159.212 200.435H140.747C135.903 200.435 131.976 204.362 131.976 209.206V209.206C131.976 214.05 135.903 217.977 140.747 217.977H159.212C155.918 224.878 148.891 229.671 140.747 229.671ZM269.393 229.671H240.157C232.014 229.671 224.986 224.878 221.692 217.977H240.157C245.001 217.977 248.928 214.05 248.928 209.206V209.206C248.928 204.362 245.001 200.435 240.157 200.435H221.692C224.986 193.53 232.014 188.741 240.157 188.741H269.393C280.676 188.741 289.858 197.923 289.858 209.206C289.858 220.493 280.676 229.671 269.393 229.671Z" fill="#12DBB9"></path><path d="M159.213 200.435H177.706C176.692 196.231 174.987 192.288 172.703 188.741H140.751C148.891 188.741 155.919 193.53 159.213 200.435Z" fill="white"></path><path d="M159.212 217.977C155.921 224.878 148.894 229.671 140.747 229.671H172.699C174.983 226.127 176.688 222.18 177.702 217.977H159.212Z" fill="white"></path><path d="M221.691 217.977H203.202C204.212 222.18 205.914 226.124 208.201 229.671H240.153C232.013 229.671 224.982 224.878 221.691 217.977V217.977Z" fill="white"></path><path d="M221.692 200.435C224.99 193.53 232.014 188.741 240.157 188.741H208.208C205.924 192.288 204.219 196.231 203.205 200.435H221.692Z" fill="white"></path><path d="M105.08 209.206C105.08 197.923 114.262 188.741 125.545 188.741H111.511C100.228 188.741 91.0461 197.923 91.0461 209.206C91.0461 220.493 100.228 229.671 111.511 229.671H125.545C114.262 229.671 105.08 220.493 105.08 209.206Z" fill="#12DBB9" fill-opacity="0.2"></path><path d="M275.824 209.209C275.824 220.493 266.642 229.671 255.359 229.671H269.393C280.676 229.671 289.858 220.493 289.858 209.209C289.858 197.923 280.676 188.741 269.393 188.741H255.359C266.642 188.741 275.824 197.923 275.824 209.209Z" fill="#12DBB9" fill-opacity="0.2"></path><path d="M556.8 228.2C541.4 228.2 528.2 225.4 517.2 219.8C506.2 214.2 497.8 206.3 492 196.1C486.4 185.7 483.6 173.7 483.6 160.1V137H514.8V158.3C514.8 172.7 518.8 183.6 526.8 191C534.8 198.4 544.8 202.1 556.8 202.1C568.8 202.1 578.8 198.4 586.8 191C594.8 183.6 598.8 172.7 598.8 158.3V137H630.3V160.1C630.3 173.7 627.4 185.7 621.6 196.1C616 206.3 607.7 214.2 596.7 219.8C585.7 225.4 572.4 228.2 556.8 228.2ZM514.8 148.4H483.6V41.9C484.8 41.5 486.8 41.1 489.6 40.7C492.4 40.1 495.2 39.8 498 39.8C503.8 39.8 508 40.9 510.6 43.1C513.4 45.1 514.8 48.8 514.8 54.2V148.4ZM630.3 148.4H598.8V41.9C600.2 41.5 602.2 41.1 604.8 40.7C607.6 40.1 610.5 39.8 613.5 39.8C619.3 39.8 623.5 40.9 626.1 43.1C628.9 45.1 630.3 48.8 630.3 54.2V148.4ZM705.424 113.6V157.7H674.524V113C674.524 108.2 675.524 104.3 677.524 101.3C679.724 98.1 682.924 95.1 687.124 92.3C692.724 88.7 700.024 85.7 709.024 83.3C718.224 80.9 728.224 79.7 739.024 79.7C756.424 79.7 765.124 84.6 765.124 94.4C765.124 96.8 764.724 99 763.924 101C763.324 103 762.524 104.8 761.524 106.4C759.524 106 756.924 105.6 753.724 105.2C750.724 104.8 747.624 104.6 744.424 104.6C736.224 104.6 728.724 105.5 721.924 107.3C715.324 108.9 709.824 111 705.424 113.6ZM674.524 144.8L705.424 147.5V223.4C704.024 223.8 702.024 224.3 699.424 224.9C697.024 225.5 694.324 225.8 691.324 225.8C685.724 225.8 681.524 224.7 678.724 222.5C675.924 220.3 674.524 216.7 674.524 211.7V144.8ZM793.526 144.8L824.126 147.5V223.4C822.926 223.8 821.026 224.3 818.426 224.9C815.826 225.5 813.026 225.8 810.026 225.8C804.426 225.8 800.226 224.7 797.426 222.5C794.826 220.3 793.526 216.7 793.526 211.7V144.8ZM824.126 162.8L793.526 160.1V29.3C794.726 28.9 796.626 28.4 799.226 27.8C801.826 27.2 804.526 26.9 807.326 26.9C813.126 26.9 817.326 28 819.926 30.2C822.726 32.2 824.126 35.8 824.126 41V162.8ZM866.377 40.7C866.377 35.5 868.177 31.2 871.777 27.8C875.377 24.4 879.777 22.7 884.977 22.7C890.577 22.7 895.077 24.4 898.477 27.8C901.877 31.2 903.577 35.5 903.577 40.7C903.577 45.7 901.877 50 898.477 53.6C895.077 57 890.577 58.7 884.977 58.7C879.777 58.7 875.377 57 871.777 53.6C868.177 50 866.377 45.7 866.377 40.7ZM869.677 144.8H900.577V223.4C899.177 223.8 897.177 224.3 894.577 224.9C892.177 225.5 889.477 225.8 886.477 225.8C880.877 225.8 876.677 224.7 873.877 222.5C871.077 220.3 869.677 216.7 869.677 211.7V144.8ZM900.577 160.1H869.677V84.5C871.077 84.1 873.077 83.7 875.677 83.3C878.277 82.7 881.077 82.4 884.077 82.4C889.677 82.4 893.777 83.5 896.377 85.7C899.177 87.7 900.577 91.3 900.577 96.5V160.1ZM989.37 162.5L968.97 148.1L1037.07 80.9C1043.27 81.1 1048.17 82.6 1051.77 85.4C1055.37 88 1057.17 91.5 1057.17 95.9C1057.17 99.5 1055.97 102.7 1053.57 105.5C1051.37 108.3 1047.97 111.6 1043.37 115.4L989.37 162.5ZM968.97 152.6L992.07 140.9L1064.97 207.8C1064.37 213.4 1062.67 217.9 1059.87 221.3C1057.07 224.5 1053.17 226.1 1048.17 226.1C1044.37 226.1 1040.87 225.1 1037.67 223.1C1034.47 221.1 1031.17 218.2 1027.77 214.4L968.97 152.6ZM944.07 143.9L974.97 146.6V223.4C973.57 223.8 971.57 224.3 968.97 224.9C966.57 225.5 963.87 225.8 960.87 225.8C955.27 225.8 951.07 224.7 948.27 222.5C945.47 220.3 944.07 216.7 944.07 211.7V143.9ZM974.97 161.9L944.07 159.2V29.3C945.47 28.9 947.47 28.4 950.07 27.8C952.67 27.2 955.47 26.9 958.47 26.9C964.07 26.9 968.17 28 970.77 30.2C973.57 32.2 974.97 35.8 974.97 41V161.9Z" fill="#333333"></path></svg>